<svg xmlns="http://www.w3.org/2000/svg" width="420" height="420" viewBox="0 0 420 420" font-family="sans-serif" font-size="11">
<rect width="420" height="420" fill="#ffffff"/>
<line x1="50" y1="370" x2="370" y2="50" stroke="#888" stroke-dasharray="4 3"/>
<line x1="50" y1="370" x2="370" y2="370" stroke="#333"/><line x1="50" y1="370" x2="50" y2="50" stroke="#333"/>
<text x="50" y="386" text-anchor="middle">0.0</text><text x="42" y="374" text-anchor="end">0.0</text>
<text x="114.0" y="386" text-anchor="middle">0.2</text><text x="42" y="310.0" text-anchor="end">0.2</text>
<text x="178.0" y="386" text-anchor="middle">0.4</text><text x="42" y="246.0" text-anchor="end">0.4</text>
<text x="242.0" y="386" text-anchor="middle">0.6</text><text x="42" y="182.0" text-anchor="end">0.6</text>
<text x="306.0" y="386" text-anchor="middle">0.8</text><text x="42" y="118.0" text-anchor="end">0.8</text>
<text x="370.0" y="386" text-anchor="middle">1.0</text><text x="42" y="54.0" text-anchor="end">1.0</text>
<polyline fill="none" stroke="#d9534f" stroke-width="2" points="92.7,370.0 130.6,173.1 170.0,50.0 194.8,263.3 222.8,324.3 243.7,263.3 287.9,50.0 317.3,50.0 352.5,50.0"/>
<circle cx="92.7" cy="370.0" r="4.449489742783178" fill="#d9534f" fill-opacity="0.6"><title>raw: conf 0.1333 acc 0.0 n 6</title></circle>
<circle cx="130.6" cy="173.1" r="5.60555127546399" fill="#d9534f" fill-opacity="0.6"><title>raw: conf 0.2519 acc 0.6154 n 13</title></circle>
<circle cx="170.0" cy="50.0" r="3.0" fill="#d9534f" fill-opacity="0.6"><title>raw: conf 0.375 acc 1.0 n 1</title></circle>
<circle cx="194.8" cy="263.3" r="6.58257569495584" fill="#d9534f" fill-opacity="0.6"><title>raw: conf 0.4525 acc 0.3333 n 21</title></circle>
<circle cx="222.8" cy="324.3" r="5.741657386773941" fill="#d9534f" fill-opacity="0.6"><title>raw: conf 0.5401 acc 0.1429 n 14</title></circle>
<circle cx="243.7" cy="263.3" r="5.464101615137754" fill="#d9534f" fill-opacity="0.6"><title>raw: conf 0.6052 acc 0.3333 n 12</title></circle>
<circle cx="287.9" cy="50.0" r="5.464101615137754" fill="#d9534f" fill-opacity="0.6"><title>raw: conf 0.7433 acc 1.0 n 12</title></circle>
<circle cx="317.3" cy="50.0" r="11.327379053088816" fill="#d9534f" fill-opacity="0.6"><title>raw: conf 0.8353 acc 1.0 n 87</title></circle>
<circle cx="352.5" cy="50.0" r="9.348469228349535" fill="#d9534f" fill-opacity="0.6"><title>raw: conf 0.9454 acc 1.0 n 54</title></circle>
<polyline fill="none" stroke="#138a8a" stroke-width="2" points="114.0,271.5 358.4,50.0"/>
<circle cx="114.0" cy="271.5" r="10.06225774829855" fill="#138a8a" fill-opacity="0.6"><title>calibrated: conf 0.2 acc 0.3077 n 65</title></circle>
<circle cx="358.4" cy="50.0" r="14.449899597988733" fill="#138a8a" fill-opacity="0.6"><title>calibrated: conf 0.9636 acc 1.0 n 155</title></circle>
<text x="210.0" y="408" text-anchor="middle">Mean predicted confidence (test split)</text>
<text x="14" y="210.0" text-anchor="middle" transform="rotate(-90 14 210.0)">Observed accuracy</text>
<text x="56.4" y="59.60000000000002" fill="#d9534f">raw (ECE 0.172)</text>
<text x="56.4" y="78.80000000000001" fill="#138a8a">calibrated (ECE 0.0575)</text>
<text x="248.4" y="194.0" fill="#888">ideal y = x</text>
</svg>
